<svg xmlns="http://www.w3.org/2000/svg" viewBox="0 0 500 300">
  <defs>
    <linearGradient id="bg" x1="0%" y1="0%" x2="100%" y2="100%">
      <stop offset="0%" style="stop-color:#1a1a2e"/>
      <stop offset="100%" style="stop-color:#16213e"/>
    </linearGradient>
    <linearGradient id="circle1" x1="0%" y1="0%" x2="100%" y2="100%">
      <stop offset="0%" style="stop-color:#e94560"/>
      <stop offset="100%" style="stop-color:#c23152"/>
    </linearGradient>
    <linearGradient id="circle2" x1="0%" y1="0%" x2="100%" y2="100%">
      <stop offset="0%" style="stop-color:#0f3460"/>
      <stop offset="100%" style="stop-color:#1a4a8a"/>
    </linearGradient>
    <linearGradient id="circle3" x1="0%" y1="0%" x2="100%" y2="100%">
      <stop offset="0%" style="stop-color:#53c7f0"/>
      <stop offset="100%" style="stop-color:#2ea8d4"/>
    </linearGradient>
    <linearGradient id="circle4" x1="0%" y1="0%" x2="100%" y2="100%">
      <stop offset="0%" style="stop-color:#4ecca3"/>
      <stop offset="100%" style="stop-color:#36b589"/>
    </linearGradient>
  </defs>
  <rect width="500" height="300" fill="url(#bg)"/>
  <g transform="translate(250,100)">
    <path d="M0,-45 L40,-30 L40,10 Q40,40 0,60 Q-40,40 -40,10 L-40,-30 Z" fill="none" stroke="#4ecca3" stroke-width="2.5" opacity="0.3"/>
    <path d="M0,-35 L30,-22 L30,8 Q30,32 0,48 Q-30,32 -30,8 L-30,-22 Z" fill="none" stroke="#4ecca3" stroke-width="2"/>
    <polyline points="-12,0 -4,10 14,-10" fill="none" stroke="#4ecca3" stroke-width="3" stroke-linecap="round" stroke-linejoin="round"/>
  </g>
  <circle cx="120" cy="195" r="38" fill="url(#circle1)" opacity="0.9"/>
  <text x="120" y="190" text-anchor="middle" fill="white" font-size="11" font-family="Arial,sans-serif" font-weight="bold">Robustness</text>
  <text x="120" y="206" text-anchor="middle" fill="rgba(255,255,255,0.8)" font-size="9" font-family="Arial,sans-serif">🔒</text>
  <circle cx="250" cy="225" r="38" fill="url(#circle2)" opacity="0.9"/>
  <text x="250" y="220" text-anchor="middle" fill="white" font-size="11" font-family="Arial,sans-serif" font-weight="bold">Fairness</text>
  <text x="250" y="236" text-anchor="middle" fill="rgba(255,255,255,0.8)" font-size="9" font-family="Arial,sans-serif">⚖️</text>
  <circle cx="380" cy="195" r="38" fill="url(#circle3)" opacity="0.9"/>
  <text x="380" y="190" text-anchor="middle" fill="white" font-size="11" font-family="Arial,sans-serif" font-weight="bold">Interpretability</text>
  <text x="380" y="206" text-anchor="middle" fill="rgba(255,255,255,0.8)" font-size="9" font-family="Arial,sans-serif">🔍</text>
  <line x1="155" y1="180" x2="215" y2="210" stroke="rgba(255,255,255,0.2)" stroke-width="1.5" stroke-dasharray="4,3"/>
  <line x1="288" y1="210" x2="345" y2="180" stroke="rgba(255,255,255,0.2)" stroke-width="1.5" stroke-dasharray="4,3"/>
  <line x1="250" y1="142" x2="250" y2="80" stroke="rgba(255,255,255,0.15)" stroke-width="1.5" stroke-dasharray="4,3"/>
  <text x="250" y="280" text-anchor="middle" fill="rgba(255,255,255,0.5)" font-size="11" font-family="Arial,sans-serif">Trustworthy Machine Learning</text>
</svg>
